<svg xmlns="http://www.w3.org/2000/svg" xmlns:xlink="http://www.w3.org/1999/xlink" viewBox="0 0 180 30"><g transform="translate(0.539 -0)" id="ss2624005725_1"><path d="M 0.005 0.544 L 178.726 0.544 L 178.726 30.544 L 0.005 30.544 Z" fill="transparent"></path><path d="M 45.145 14.531 L 40.23 6.423 L 36.745 6.423 L 36.745 23.564 L 40.128 23.564 L 40.128 12.479 L 44.954 20.41 L 45.348 20.41 L 50.162 12.454 L 50.162 23.564 L 53.519 23.564 L 53.519 6.424 L 50.048 6.424 Z M 65.377 12.77 C 64.49 11.667 63.173 10.984 61.386 10.984 C 58.13 10.984 55.432 13.796 55.432 17.445 C 55.432 21.094 58.13 23.906 61.386 23.906 C 63.173 23.906 64.49 23.222 65.377 22.12 L 65.377 23.564 L 68.532 23.564 L 68.532 11.326 L 65.377 11.326 Z M 61.97 20.904 C 60.031 20.904 58.587 19.51 58.587 17.445 C 58.587 15.393 60.031 13.986 61.97 13.986 C 63.933 13.986 65.377 15.38 65.377 17.445 C 65.377 19.497 63.933 20.904 61.97 20.904 Z M 82.049 11.326 L 78.275 11.326 L 74.068 16.71 L 74.068 6.424 L 70.901 6.424 L 70.901 23.564 L 74.068 23.564 L 74.068 18.015 L 78.528 23.565 L 82.201 23.565 L 77.121 17.369 Z" fill="rgb(255,255,255)"></path><path d="M 88.22 10.984 C 84.381 10.984 81.758 13.796 81.758 17.445 C 81.758 21.094 84.355 23.906 88.473 23.906 C 90.829 23.906 92.666 22.956 93.807 21.284 L 91.26 19.814 C 90.715 20.524 89.74 21.043 88.523 21.043 C 86.864 21.043 85.508 20.359 85.064 18.738 L 94.301 18.738 C 94.382 18.312 94.424 17.879 94.427 17.445 C 94.415 13.847 91.842 10.984 88.22 10.984 Z M 85.014 16.293 C 85.381 14.722 86.534 13.822 88.22 13.822 C 89.537 13.822 90.867 14.531 91.26 16.293 Z M 104.068 6.424 L 100.343 13.581 L 96.619 6.424 L 92.793 6.424 L 98.645 16.888 L 98.645 23.564 L 102.003 23.564 L 102.003 16.888 L 107.881 6.424 Z M 112.265 10.984 C 108.667 10.984 105.804 13.796 105.804 17.445 C 105.804 21.094 108.667 23.906 112.265 23.906 C 115.863 23.906 118.752 21.094 118.752 17.445 C 118.752 13.796 115.863 10.984 112.265 10.984 Z M 112.265 20.828 C 110.403 20.828 108.958 19.434 108.958 17.445 C 108.958 15.456 110.403 14.062 112.265 14.062 C 114.153 14.062 115.597 15.456 115.597 17.445 C 115.597 19.434 114.153 20.828 112.265 20.828 Z M 128.57 17.939 C 128.57 20.067 127.417 20.98 125.871 20.98 C 124.452 20.98 123.451 20.119 123.451 18.459 L 123.451 11.326 L 120.297 11.326 L 120.297 18.838 C 120.297 22.094 122.324 23.906 124.921 23.906 C 126.568 23.906 127.835 23.298 128.57 22.196 L 128.57 23.564 L 131.724 23.564 L 131.724 11.326 L 128.57 11.326 Z M 137.299 13.429 L 137.299 11.326 L 134.144 11.326 L 134.144 23.564 L 137.299 23.564 L 137.299 17.711 C 137.299 15.139 139.377 14.404 141.023 14.607 L 141.023 11.085 C 139.477 11.085 137.932 11.77 137.299 13.429 Z M 158.177 19.129 L 154.579 6.424 L 151.691 6.424 L 148.118 19.129 L 144.837 6.424 L 141.29 6.424 L 146.078 23.564 L 149.93 23.564 L 153.135 12.251 L 156.365 23.564 L 160.217 23.564 L 165.019 6.424 L 161.458 6.424 Z M 172.872 6.424 L 166.488 6.424 L 166.488 23.564 L 169.87 23.564 L 169.87 17.926 L 172.886 17.926 C 176.192 17.926 178.738 15.38 178.738 12.175 C 178.726 8.969 176.18 6.424 172.872 6.424 Z M 172.872 14.771 L 169.857 14.771 L 169.857 9.578 L 172.872 9.578 C 174.317 9.578 175.369 10.68 175.369 12.175 C 175.369 13.657 174.317 14.771 172.872 14.771 Z" fill="rgb(255,255,255)"></path><path d="M 29.346 10.807 C 27.534 4.573 21.758 -0 14.941 -0 C 7.556 -0 1.385 5.372 0.17 12.428 C 0.101 12.827 0.046 13.229 0.005 13.631 C -0.025 13.983 0.093 14.331 0.332 14.591 C 0.57 14.851 0.906 14.999 1.259 15 L 10.266 15 C 10.963 15 11.521 14.442 11.521 13.746 L 11.521 13.683 C 11.521 12.986 10.963 12.428 10.266 12.428 L 2.995 12.428 C 4.033 9.679 6.694 7.716 9.81 7.716 C 12.66 7.716 15.131 9.363 16.335 11.757 C 16.538 12.175 16.981 12.428 17.45 12.428 L 17.513 12.428 C 18.438 12.428 19.059 11.453 18.641 10.616 C 17.176 7.681 14.354 5.66 11.103 5.22 C 11.527 5.164 11.954 5.135 12.382 5.131 C 16.639 5.131 20.262 7.829 21.643 11.617 C 21.826 12.101 22.291 12.419 22.808 12.416 L 22.872 12.416 C 23.746 12.416 24.355 11.554 24.05 10.73 C 22.453 6.347 18.451 3.116 13.662 2.622 C 14.08 2.584 14.51 2.559 14.954 2.559 C 20.592 2.559 25.368 6.334 26.875 11.491 C 27.04 12.035 27.522 12.416 28.079 12.416 L 28.143 12.416 C 28.54 12.421 28.916 12.236 29.154 11.918 C 29.393 11.6 29.464 11.187 29.346 10.807 Z M 28.637 15 L 19.63 15 C 18.933 15 18.375 15.558 18.375 16.255 L 18.375 16.317 C 18.375 17.014 18.933 17.572 19.63 17.572 L 26.901 17.572 C 25.863 20.321 23.202 22.284 20.086 22.284 C 17.321 22.283 14.794 20.718 13.561 18.243 C 13.358 17.825 12.915 17.572 12.447 17.572 L 12.383 17.572 C 11.458 17.572 10.837 18.547 11.255 19.384 C 12.72 22.319 15.542 24.34 18.793 24.78 C 18.375 24.831 17.945 24.869 17.502 24.869 C 13.257 24.869 9.621 22.171 8.24 18.383 C 8.057 17.899 7.592 17.581 7.075 17.584 L 7.011 17.584 C 6.138 17.584 5.529 18.446 5.833 19.27 C 7.43 23.653 11.433 26.884 16.221 27.378 C 15.804 27.416 15.372 27.441 14.93 27.441 C 9.291 27.441 4.516 23.665 2.996 18.509 C 2.831 17.965 2.349 17.584 1.792 17.584 L 1.729 17.584 C 0.892 17.584 0.297 18.395 0.525 19.206 C 2.337 25.439 8.113 30.012 14.93 30.012 C 22.328 30.012 28.485 24.628 29.701 17.584 C 29.765 17.192 29.828 16.787 29.866 16.381 C 29.954 15.634 29.372 15 28.637 15 Z" fill="rgb(188,191,229)"></path></g></svg>